<?xml version="1.0" standalone="no"?>
<!DOCTYPE svg PUBLIC "-//W3C//DTD SVG 20010904//EN"
 "http://www.w3.org/TR/2001/REC-SVG-20010904/DTD/svg10.dtd">
<svg version="1.0" xmlns="http://www.w3.org/2000/svg"
 width="1024.000000pt" height="1024.000000pt" viewBox="0 0 1024.000000 1024.000000"
 preserveAspectRatio="xMidYMid meet">

<g transform="translate(0.000000,1024.000000) scale(0.100000,-0.100000)"
fill="#000000" stroke="none">
<path d="M4955 9219 c-457 -29 -920 -132 -1360 -304 -155 -61 -529 -245 -670
-330 -622 -377 -1097 -843 -1476 -1447 -109 -175 -288 -527 -357 -703 -49
-129 -85 -245 -77 -253 2 -3 9 16 15 40 12 47 38 61 48 26 2 -10 8 -15 14 -12
5 3 16 0 25 -8 9 -7 14 -8 10 -2 -4 7 0 15 9 18 22 8 26 8 19 -4 -10 -16 5
-12 23 6 15 15 16 15 23 -2 7 -18 8 -18 8 0 1 15 7 17 31 14 17 -3 35 1 40 7
8 9 4 12 -14 10 -26 -3 -43 19 -24 31 7 4 8 3 4 -4 -5 -8 4 -12 27 -12 44 0
51 -8 24 -31 -12 -10 -17 -18 -10 -19 6 0 14 6 16 13 4 9 8 8 16 -3 9 -12 11
-8 9 18 -1 19 -8 32 -16 32 -7 0 -11 4 -8 9 7 10 25 9 43 -2 9 -6 11 -3 6 9
-4 12 -3 15 5 10 6 -4 22 -1 34 5 20 11 22 11 10 -3 -9 -11 -10 -18 -2 -23 20
-12 10 -22 -22 -21 -28 1 -33 -3 -36 -24 l-3 -25 16 23 c12 16 20 20 29 13 8
-6 19 -3 36 10 14 11 19 18 11 17 -7 -2 -16 3 -18 10 -3 7 4 12 16 12 12 0 21
-5 21 -11 0 -8 5 -7 15 1 9 7 18 10 22 6 3 -3 1 -6 -6 -6 -7 0 -9 -4 -6 -10 9
-15 25 -12 25 5 0 23 18 18 36 -11 12 -17 19 -21 24 -14 11 17 50 2 50 -18 -1
-16 -2 -16 -14 1 -16 21 -23 22 -23 3 0 -8 3 -15 6 -14 3 0 8 -1 11 -2 24 -9
41 -7 36 5 -5 15 17 10 44 -9 13 -10 13 -9 1 6 -11 15 -11 19 3 24 9 3 13 10
10 15 -3 5 0 9 6 9 6 0 15 -10 20 -22 5 -13 9 -17 9 -10 1 7 -4 23 -10 35 -9
18 -9 20 1 10 15 -14 42 -6 33 11 -3 6 0 5 8 -2 12 -11 11 -15 -5 -28 -19 -14
-19 -14 2 -14 11 0 26 8 32 18 10 14 11 13 6 -8 -5 -23 -4 -24 9 -7 7 10 11
30 9 44 -3 15 -1 22 6 18 5 -3 10 -16 11 -28 0 -12 3 -16 6 -10 3 9 10 10 23
3 13 -7 21 -7 26 2 5 7 2 8 -7 3 -12 -7 -12 -5 -1 6 8 9 15 10 20 4 10 -14 35
-18 27 -5 -8 13 14 42 26 34 5 -3 9 -14 9 -24 0 -14 5 -18 16 -13 9 3 20 0 25
-8 9 -15 11 -6 12 49 0 12 4 22 9 22 5 0 8 -6 7 -12 -1 -7 3 -24 9 -38 6 -14
11 -19 11 -11 1 7 7 11 16 7 8 -3 15 0 15 7 0 7 7 3 15 -7 13 -17 15 -18 15
-3 0 9 7 18 15 18 8 1 20 3 25 4 6 1 15 3 21 4 8 1 8 5 0 15 -8 10 -9 16 -1
21 5 3 10 2 10 -2 0 -5 10 -9 23 -10 21 -2 21 -1 3 13 -11 8 -18 14 -15 15 2
0 11 2 20 4 10 2 15 -4 14 -19 -1 -11 -8 -21 -16 -21 -20 0 -30 -18 -16 -28 8
-6 7 -7 -4 -4 -13 4 -15 1 -12 -13 4 -17 7 -17 19 -5 8 7 14 18 14 24 0 6 5
11 11 11 5 0 7 -5 3 -11 -4 -7 -1 -10 7 -7 8 3 13 11 12 17 -2 6 2 11 8 11 5
0 8 4 4 9 -3 5 0 13 6 16 7 5 9 -5 5 -31 -2 -22 -2 -33 0 -26 3 6 12 12 20 12
9 0 12 -4 9 -10 -3 -5 -1 -10 4 -10 6 0 11 5 11 10 0 6 5 10 11 10 5 0 7 -5 3
-12 -4 -7 -3 -8 5 -4 15 10 3 29 -14 22 -22 -8 -34 17 -16 34 11 10 37 15 76
16 38 0 60 4 60 11 0 6 4 15 8 20 5 4 7 1 5 -7 -2 -8 3 -14 10 -13 6 2 12 -2
12 -8 0 -13 42 -1 52 15 5 7 8 6 8 -4 0 -10 7 -7 21 10 18 23 19 23 9 3 -8
-18 -8 -23 2 -23 9 0 9 -3 0 -12 -15 -15 -16 -42 -2 -33 6 4 8 10 5 15 -3 5 5
16 17 24 12 9 19 16 14 16 -5 0 -3 7 4 15 7 8 21 15 31 15 21 0 24 10 9 28 -5
7 -3 6 6 -2 19 -16 11 -36 -15 -36 -10 0 -18 -7 -18 -15 0 -12 3 -12 16 -2 12
10 14 9 7 -8 -4 -11 -4 -16 0 -12 4 4 16 -1 27 -10 14 -12 18 -13 12 -3 -16
26 -13 49 6 47 9 -1 15 -7 12 -14 -3 -9 0 -11 10 -7 13 4 14 11 6 31 -8 23 -8
24 6 13 12 -10 15 -10 15 0 0 8 3 10 6 7 4 -4 1 -13 -6 -22 -8 -10 -9 -15 -2
-15 6 0 9 -6 6 -14 -4 -11 0 -13 18 -10 22 5 22 5 4 -10 -18 -15 -18 -15 1
-13 11 0 20 6 20 12 0 5 4 18 8 28 4 10 3 17 -5 17 -6 0 -8 -4 -5 -10 3 -5 2
-10 -4 -10 -19 0 -20 17 -2 32 14 12 22 13 30 5 8 -8 11 -7 11 3 0 7 3 11 6 8
3 -4 -2 -18 -11 -32 -17 -25 -17 -26 4 -26 11 0 21 5 21 11 0 5 -6 7 -12 3 -9
-5 -10 -4 -3 4 16 16 75 23 69 7 -3 -7 5 -15 21 -19 34 -9 43 -2 40 29 -2 14
1 23 5 20 5 -3 7 -12 3 -20 -3 -8 0 -15 7 -15 6 0 8 -4 5 -10 -4 -6 1 -7 11
-3 12 4 15 3 10 -5 -10 -16 5 -15 26 2 10 7 19 27 20 44 2 29 4 30 18 17 12
-13 13 -17 1 -24 -9 -6 -10 -11 -2 -15 6 -4 11 -2 11 4 0 6 4 9 9 5 16 -10 23
15 9 33 -12 15 -11 16 5 3 10 -8 16 -20 13 -27 -6 -15 25 -7 36 10 5 8 8 8 8
0 0 -7 11 -19 25 -28 21 -14 24 -14 19 -1 -4 8 -2 15 4 15 6 0 12 -6 15 -12 2
-7 8 -10 12 -6 4 4 0 19 -9 33 -9 14 -12 25 -6 25 5 0 10 -4 10 -10 0 -10 46
-56 71 -70 13 -7 16 -5 15 8 0 11 7 18 22 20 15 2 22 10 22 27 0 13 7 24 18
27 23 5 52 -1 52 -12 0 -5 -7 -7 -15 -4 -8 4 -15 1 -15 -6 0 -10 -3 -10 -15 0
-13 11 -14 10 -10 -1 3 -8 15 -20 27 -28 18 -11 20 -11 15 3 -5 12 0 16 16 16
18 0 19 -2 7 -11 -12 -8 -10 -9 9 -4 13 4 21 3 18 -1 -3 -5 2 -15 10 -23 13
-12 14 -11 8 9 -4 14 -3 20 3 16 5 -3 13 1 16 10 3 9 12 14 19 11 8 -3 13 4
12 22 0 21 5 26 25 28 14 1 17 -1 8 -3 -13 -4 -16 -15 -15 -44 1 -22 4 -35 8
-29 4 7 12 5 22 -5 8 -9 19 -16 24 -16 4 1 -3 10 -16 20 -14 12 -18 20 -10 20
8 0 20 10 28 21 10 18 15 19 22 8 8 -12 10 -12 18 0 7 11 9 11 14 0 4 -11 7
-12 18 -1 7 6 18 12 25 12 24 0 6 -32 -52 -92 -53 -56 -51 -55 21 12 44 41
104 95 132 119 29 24 50 48 46 54 -3 6 -1 7 6 3 6 -4 19 -2 27 5 12 10 12 14
2 22 -9 6 -8 7 5 3 21 -7 79 32 70 47 -3 6 -1 7 5 3 14 -9 85 38 74 49 -4 5
-2 5 5 1 6 -3 40 10 74 30 158 93 373 175 569 219 166 37 297 48 516 43 169
-3 190 -2 139 8 -33 6 -200 37 -371 68 -541 99 -715 159 -846 293 -139 142
-137 325 4 608 141 281 369 587 614 825 157 153 370 337 464 402 25 17 24 17
-40 16 -36 -1 -119 -4 -185 -9z m-1248 -2636 c-4 -3 0 -15 10 -25 10 -11 12
-18 5 -19 -37 -4 -46 -3 -50 9 -2 8 2 10 14 5 13 -5 16 -3 11 9 -5 15 0 28 11
28 3 0 2 -3 -1 -7z m38 -62 c3 -5 1 -12 -5 -16 -5 -3 -10 1 -10 9 0 18 6 21
15 7z m-31 -17 c3 -7 -3 -18 -12 -26 -9 -8 -13 -8 -9 -1 4 6 0 18 -8 27 -14
13 -13 15 5 13 11 -1 22 -7 24 -13z m-319 -4 c3 -6 -1 -7 -9 -4 -18 7 -21 14
-7 14 6 0 13 -4 16 -10z m95 -8 c0 -5 -6 -17 -14 -28 -15 -19 -15 -19 -11 1 2
11 4 23 4 28 1 10 21 9 21 -1z m-44 -27 c2 -21 -1 -24 -12 -14 -17 14 -18 39
-1 39 6 0 13 -11 13 -25z m-161 5 c3 -5 0 -21 -8 -35 l-13 -26 -23 25 c-16 17
-19 26 -10 31 7 5 10 4 5 -3 -3 -6 -2 -13 4 -17 5 -3 10 3 10 14 0 21 24 29
35 11z m31 -16 c1 -9 0 -13 -4 -10 -3 4 -7 14 -8 22 -1 9 0 13 4 10 3 -4 7
-14 8 -22z m238 18 c3 -5 -1 -9 -9 -9 -8 0 -15 4 -15 9 0 4 4 8 9 8 6 0 12 -4
15 -8z m-636 -32 c2 -30 -11 -40 -24 -18 -5 7 -3 8 6 3 10 -6 12 -4 7 9 -6 15
-2 36 6 36 2 0 4 -13 5 -30z m-428 10 c0 -5 -4 -10 -10 -10 -5 0 -10 5 -10 10
0 6 5 10 10 10 6 0 10 -4 10 -10z m506 -18 c-4 -24 -18 -21 -22 5 -3 16 0 21
10 17 8 -3 13 -13 12 -22z m-1895 -25 c-10 -9 -11 -8 -5 6 3 10 9 15 12 12 3
-3 0 -11 -7 -18z m965 -44 c-2 -9 -8 -19 -15 -21 -10 -3 -10 0 -2 17 14 25 20
27 17 4z m-208 -18 c-3 -3 -9 2 -12 12 -6 14 -5 15 5 6 7 -7 10 -15 7 -18z
m33 2 c-13 -13 -26 -3 -16 12 3 6 11 8 17 5 6 -4 6 -10 -1 -17z m234 13 c-3
-5 -12 -10 -18 -10 -7 0 -6 4 3 10 19 12 23 12 15 0z m-1048 -31 c-3 -12 2
-28 13 -39 10 -10 15 -22 12 -26 -4 -4 2 -4 13 0 15 6 17 4 8 -5 -12 -12 -44
-6 -42 8 3 20 -2 24 -16 13 -18 -15 -19 -7 -3 37 13 36 23 45 15 12z m183 11
c0 -5 -2 -10 -4 -10 -3 0 -8 5 -11 10 -3 6 -1 10 4 10 6 0 11 -4 11 -10z m725
0 c3 -6 -1 -7 -9 -4 -18 7 -21 14 -7 14 6 0 13 -4 16 -10z m-861 -49 c-2 -3
-12 3 -22 13 -16 17 -16 18 5 5 12 -7 20 -15 17 -18z m540 -6 c-7 -16 -24 -21
-24 -6 0 8 7 13 27 20 1 1 0 -6 -3 -14z"/>
<path d="M3620 6450 c-8 -5 -12 -12 -9 -15 4 -3 12 1 19 10 14 17 11 19 -10 5z"/>
<path d="M3115 6430 c-3 -5 -1 -10 4 -10 6 0 10 -3 10 -7 -1 -5 -1 -15 0 -23
1 -12 4 -11 12 3 7 13 6 21 -5 32 -9 9 -17 11 -21 5z"/>
<path d="M2845 6420 c-3 -5 -1 -10 4 -10 6 0 11 5 11 10 0 6 -2 10 -4 10 -3 0
-8 -4 -11 -10z"/>
<path d="M3350 6419 c0 -5 5 -7 10 -4 6 3 10 8 10 11 0 2 -4 4 -10 4 -5 0 -10
-5 -10 -11z"/>
<path d="M3050 6399 c0 -5 5 -7 10 -4 6 3 10 8 10 11 0 2 -4 4 -10 4 -5 0 -10
-5 -10 -11z"/>
<path d="M2586 6393 c-10 -10 -7 -33 5 -33 5 0 7 4 4 10 -4 7 3 7 19 0 14 -5
26 -6 26 -1 0 11 -46 31 -54 24z"/>
<path d="M2350 6380 c0 -5 7 -7 15 -4 10 4 15 0 15 -15 0 -25 -8 -26 -40 -5
l-25 16 22 -20 c12 -11 19 -22 16 -26 -4 -3 -1 -6 5 -6 12 0 42 39 42 55 0 6
-11 12 -25 13 -14 1 -25 -3 -25 -8z"/>
<path d="M2417 6383 c-11 -11 -8 -20 9 -27 9 -4 13 -2 8 5 -4 6 0 15 7 20 11
7 11 9 -2 9 -9 0 -19 -3 -22 -7z"/>
<path d="M2475 6382 c-6 -4 -11 -14 -13 -22 -2 -12 1 -11 11 2 8 11 17 14 23
8 6 -6 15 -5 24 1 13 9 13 10 -1 6 -9 -3 -21 -1 -25 3 -5 5 -14 6 -19 2z"/>
<path d="M2950 6375 c0 -8 4 -15 10 -15 5 0 7 7 4 15 -4 8 -8 15 -10 15 -2 0
-4 -7 -4 -15z"/>
<path d="M2687 6369 c7 -7 15 -10 18 -7 3 3 -2 9 -12 12 -14 6 -15 5 -6 -5z"/>
<path d="M1920 6333 c0 -5 5 -15 10 -23 8 -12 10 -11 10 8 0 12 -4 22 -10 22
-5 0 -10 -3 -10 -7z"/>
<path d="M3529 6293 l-34 -38 38 34 c20 19 37 36 37 38 0 8 -8 0 -41 -34z"/>
<path d="M1504 6281 c-6 -29 -19 -35 -19 -8 0 22 -20 16 -21 -8 -3 -36 37 -28
48 10 4 16 5 31 3 34 -3 2 -8 -10 -11 -28z"/>
<path d="M1913 6275 c0 -8 4 -12 9 -9 4 3 8 9 8 15 0 5 -4 9 -8 9 -5 0 -9 -7
-9 -15z"/>
<path d="M1946 6281 c-3 -5 1 -11 9 -14 9 -4 12 -1 8 9 -6 16 -10 17 -17 5z"/>
<path d="M1524 6265 c3 -21 16 -31 16 -12 0 9 -4 18 -9 21 -5 4 -8 -1 -7 -9z"/>
<path d="M1410 6255 c-7 -9 -8 -15 -2 -15 5 0 12 7 16 15 3 8 4 15 2 15 -2 0
-9 -7 -16 -15z"/>
<path d="M3479 6233 c-13 -16 -12 -17 4 -4 9 7 17 15 17 17 0 8 -8 3 -21 -13z"/>
<path d="M3449 6193 c-13 -16 -12 -17 4 -4 16 13 21 21 13 21 -2 0 -10 -8 -17
-17z"/>
<path d="M3419 6153 c-13 -16 -12 -17 4 -4 16 13 21 21 13 21 -2 0 -10 -8 -17
-17z"/>
<path d="M991 6124 c0 -11 3 -14 6 -6 3 7 2 16 -1 19 -3 4 -6 -2 -5 -13z"/>
<path d="M3350 6050 c-6 -11 -8 -20 -6 -20 3 0 10 9 16 20 6 11 8 20 6 20 -3
0 -10 -9 -16 -20z"/>
<path d="M4445 6058 c-151 -8 -293 -33 -325 -57 -51 -37 -50 -101 2 -135 13
-8 81 -24 152 -36 565 -91 1001 -329 1344 -735 188 -223 315 -467 417 -803 47
-156 63 -182 116 -182 15 0 40 10 55 23 23 20 27 34 36 117 12 116 -3 331 -33
469 -76 351 -266 684 -521 915 -205 185 -432 309 -691 376 -185 48 -334 61
-552 48z"/>
<path d="M9471 5724 c0 -11 3 -14 6 -6 3 7 2 16 -1 19 -3 4 -6 -2 -5 -13z"/>
<path d="M9482 5660 c0 -14 2 -19 5 -12 2 6 2 18 0 25 -3 6 -5 1 -5 -13z"/>
<path d="M9492 5590 c0 -14 2 -19 5 -12 2 6 2 18 0 25 -3 6 -5 1 -5 -13z"/>
<path d="M9502 5495 c0 -16 2 -22 5 -12 2 9 2 23 0 30 -3 6 -5 -1 -5 -18z"/>
<path d="M3975 5456 c-5 -3 -32 -7 -59 -11 -87 -12 -124 -82 -73 -140 19 -23
37 -28 152 -46 241 -36 406 -93 605 -211 389 -229 654 -550 817 -988 20 -52
45 -105 56 -117 29 -32 80 -31 114 3 26 26 26 27 20 143 -19 380 -156 693
-416 951 -162 161 -308 255 -516 334 -173 65 -254 79 -480 82 -115 2 -214 2
-220 0z"/>
<path d="M9513 5395 c0 -27 2 -38 4 -22 2 15 2 37 0 50 -2 12 -4 0 -4 -28z"/>
<path d="M7141 5344 c0 -11 3 -14 6 -6 3 7 2 16 -1 19 -3 4 -6 -2 -5 -13z"/>
<path d="M9519 5183 c0 -65 -3 -113 -5 -107 -4 9 -11 9 -28 1 -22 -10 -22 -13
-7 -25 9 -7 11 -11 4 -8 -6 4 -14 2 -17 -3 -3 -5 5 -11 19 -13 13 -3 22 -2 20
3 -3 4 -1 10 5 14 5 3 10 -3 10 -15 0 -17 -4 -19 -27 -14 -16 4 -30 8 -32 10
-2 2 -11 -2 -20 -8 -10 -8 -9 -4 3 9 16 20 17 25 5 40 -9 11 -10 14 -1 9 14
-8 12 14 -6 54 -7 17 -11 20 -11 8 -1 -9 3 -20 9 -23 6 -4 4 -15 -5 -29 -8
-12 -12 -26 -8 -29 3 -4 2 -7 -4 -7 -6 0 -10 11 -9 24 0 13 4 22 9 19 4 -2 7
1 7 7 0 7 -6 10 -12 7 -7 -2 -12 -12 -12 -21 2 -19 -12 -22 -19 -3 -4 9 -6 9
-6 0 -1 -6 3 -14 9 -18 5 -3 7 -12 4 -20 -5 -12 -10 -10 -24 8 -13 16 -15 26
-8 35 7 8 7 12 0 12 -5 0 -15 -7 -22 -15 -9 -10 -9 -15 -1 -15 6 0 11 -5 11
-11 0 -5 -4 -7 -10 -4 -5 3 -10 1 -10 -5 0 -6 -7 -18 -15 -26 -8 -9 -15 -13
-15 -10 0 3 -15 -1 -34 -9 -32 -13 -35 -13 -39 3 -4 16 -5 16 -6 0 -1 -19 -51
-27 -51 -8 0 6 -4 10 -9 10 -16 0 -8 -40 11 -57 15 -13 21 -14 31 -4 6 6 12
16 12 22 0 5 5 9 10 9 19 0 10 -35 -12 -46 -13 -6 -20 -14 -16 -17 3 -4 1 -7
-5 -7 -6 0 -9 -8 -6 -17 5 -17 5 -17 -6 0 -6 9 -20 17 -30 17 -26 0 -33 15
-15 34 14 13 13 15 -4 13 -11 0 -19 -4 -19 -7 0 -3 0 -12 -1 -20 -1 -12 -3
-12 -9 -2 -12 18 -42 4 -35 -15 4 -11 2 -14 -5 -9 -6 3 -15 -1 -20 -10 -6 -11
-11 -13 -16 -5 -9 14 2 33 15 26 5 -4 9 0 9 9 0 8 6 16 13 19 6 3 2 4 -10 4
-12 -1 -25 -7 -28 -15 -3 -8 -12 -11 -21 -8 -8 3 -13 2 -10 -3 10 -16 -29 -55
-48 -48 -16 6 -16 8 0 32 9 14 21 22 28 18 6 -3 5 0 -3 8 -11 12 -14 12 -18 0
-3 -7 -14 -22 -25 -33 -18 -18 -18 -19 17 -33 19 -9 35 -16 35 -18 0 -6 -57
-1 -69 7 -9 6 -12 5 -7 -2 3 -5 3 -12 -1 -15 -5 -2 -1 -2 7 0 12 3 12 2 3 -8
-10 -10 -15 -9 -28 1 -12 10 -18 10 -32 -1 -14 -12 -16 -12 -8 0 6 11 4 13 -9
8 -11 -5 -15 -3 -10 4 4 7 1 10 -7 7 -8 -3 -23 -1 -34 5 -18 9 -19 9 -6 -7 8
-9 12 -19 9 -22 -9 -8 -78 -11 -78 -2 0 4 7 8 15 8 8 0 15 4 15 8 0 14 -29 10
-34 -5 -3 -7 -10 -13 -16 -13 -6 0 -8 5 -4 12 4 7 3 8 -5 4 -9 -6 -8 -14 4
-33 10 -14 12 -22 6 -19 -6 4 -11 2 -11 -4 0 -6 -5 -8 -12 -4 -7 5 -9 1 -6
-13 3 -12 0 -20 -8 -20 -7 0 -11 4 -8 9 3 4 -2 8 -10 8 -12 0 -14 -5 -7 -22 5
-13 5 -31 2 -41 -6 -17 -8 -16 -19 8 -14 31 -16 46 -2 25 6 -10 9 -5 8 18 -1
18 -5 32 -10 32 -4 0 -8 -4 -8 -10 0 -5 -7 -10 -16 -10 -14 0 -14 -3 -4 -15 7
-9 10 -18 6 -22 -3 -3 -6 0 -6 7 0 11 -3 11 -12 2 -15 -15 -28 -16 -28 -2 0 6
8 10 18 10 14 0 15 2 2 10 -10 6 -11 10 -2 10 6 0 12 7 12 15 0 8 5 16 10 16
6 1 14 2 20 3 5 0 17 12 27 26 13 19 14 22 2 13 -17 -14 -29 -8 -25 10 2 7 1
9 -1 4 -3 -4 -10 -4 -16 0 -7 4 -7 1 1 -9 11 -14 9 -20 -14 -42 -15 -14 -32
-23 -36 -20 -10 6 -38 -14 -38 -27 0 -5 4 -9 10 -9 5 0 9 5 7 11 -1 6 3 13 10
16 8 3 11 -3 8 -18 -7 -35 -20 -41 -40 -19 -18 20 -18 21 5 45 13 14 19 25 13
25 -6 0 -14 -7 -17 -16 -3 -8 -11 -12 -17 -8 -8 4 -9 3 -5 -4 4 -7 2 -12 -3
-12 -6 0 -11 -6 -11 -14 0 -12 -43 -31 -53 -24 -2 2 -11 -3 -21 -11 -18 -15
-32 -9 -21 8 3 6 11 8 17 5 7 -4 8 -2 4 5 -4 6 -15 10 -24 9 -11 -2 -16 3 -14
12 3 13 1 13 -10 1 -10 -11 -10 -14 0 -18 23 -9 12 -22 -15 -18 -16 1 -27 8
-25 15 1 7 -9 3 -24 -9 -14 -11 -30 -18 -35 -15 -5 3 -6 -2 -3 -10 8 -20 27
-16 36 7 4 10 13 15 19 11 8 -4 7 -9 -2 -16 -11 -7 -9 -8 5 -6 13 2 20 -4 21
-19 1 -16 -4 -23 -16 -23 -10 0 -21 -5 -25 -12 -4 -7 -3 -8 4 -4 7 4 12 3 12
-3 0 -15 -21 -25 -29 -12 -4 6 -17 9 -30 6 -19 -3 -22 -1 -18 15 3 13 0 20
-10 20 -10 0 -13 -6 -9 -16 4 -11 2 -15 -8 -11 -11 4 -13 1 -9 -10 5 -12 1
-14 -15 -8 -13 4 -22 2 -22 -4 0 -6 9 -11 19 -11 14 0 19 -6 18 -21 -1 -18 -2
-19 -14 -4 -6 10 -16 14 -22 10 -10 -5 -15 6 -13 26 1 4 -7 9 -17 12 -18 4
-22 -16 -9 -39 4 -5 -3 -11 -15 -11 -17 -2 -19 0 -7 7 14 9 7 14 -14 11 -5 -1
-6 6 -2 16 5 16 4 16 -6 3 -7 -8 -26 -16 -43 -17 -16 -2 -35 -9 -41 -18 -16
-22 -34 -19 -34 6 0 18 -2 19 -15 5 -18 -18 -20 -30 -2 -20 7 5 6 0 -3 -11 -8
-10 -10 -16 -4 -12 7 4 15 0 18 -9 4 -11 2 -15 -8 -11 -7 3 -19 0 -25 -6 -8
-8 -9 -5 -6 12 4 24 -11 19 -33 -11 -10 -14 -16 -15 -26 -5 -8 6 -12 15 -10
18 2 3 -3 6 -11 6 -8 0 -12 -4 -9 -9 3 -4 2 -9 -3 -9 -43 -7 -53 -5 -59 14 -5
16 -8 17 -15 6 -8 -12 -11 -12 -20 1 -8 12 -9 10 -4 -9 5 -15 3 -21 -3 -17 -6
3 -13 2 -17 -4 -10 -16 -38 -12 -32 4 3 8 3 17 0 20 -7 7 -33 -19 -33 -34 0
-6 -5 -8 -12 -3 -19 11 -37 12 -43 2 -3 -4 5 -11 19 -15 18 -4 23 -11 21 -26
-4 -16 0 -19 17 -15 20 6 20 5 3 -11 -13 -13 -19 -14 -22 -4 -3 6 -9 12 -14
12 -6 0 -7 -5 -3 -12 4 -7 3 -8 -4 -4 -7 4 -12 19 -12 34 0 19 -3 23 -9 13
-10 -16 -2 -53 13 -63 6 -4 25 -5 43 -2 27 4 32 2 30 -15 -1 -12 -8 -21 -15
-21 -12 0 -12 3 -2 15 11 13 9 15 -8 12 -12 -2 -24 -6 -28 -9 -7 -8 -44 13
-44 24 0 8 -37 48 -44 48 -2 0 -1 -11 2 -25 3 -20 1 -24 -12 -19 -9 3 -16 1
-16 -5 0 -6 -6 -11 -14 -11 -8 0 -18 -9 -21 -21 -5 -14 -12 -18 -23 -14 -14 5
-15 4 -4 -6 6 -7 12 -21 12 -32 0 -11 4 -15 12 -11 7 4 8 3 4 -4 -4 -6 -13 -9
-21 -6 -8 4 -12 10 -9 15 2 5 0 17 -6 28 -6 13 -6 22 0 26 5 3 7 12 3 20 -4
11 -1 13 11 9 9 -3 16 -1 16 5 0 6 7 8 15 5 18 -7 20 14 4 36 -9 13 -10 12 -5
-2 3 -10 2 -18 -2 -19 -43 -5 -50 -4 -46 3 3 4 -2 8 -11 8 -11 0 -15 5 -11 16
3 9 2 12 -5 9 -5 -4 -7 -15 -4 -25 5 -15 -29 -100 -40 -100 -7 0 8 41 16 46
14 8 11 24 -3 22 -7 -2 -12 5 -12 15 1 9 -5 17 -13 17 -8 0 -11 5 -7 12 4 7 3
8 -5 4 -9 -6 -9 -11 0 -22 20 -25 -30 -61 -54 -38 -10 10 4 34 22 35 12 0 12
2 -4 9 -30 13 -30 12 -33 -17 -1 -14 6 -36 15 -47 18 -21 18 -21 -3 -3 -11 9
-24 14 -27 10 -4 -3 -7 2 -7 13 0 15 -2 16 -9 4 -6 -8 -8 -17 -6 -20 2 -4 -6
-6 -18 -5 -33 3 -44 -4 -42 -25 2 -25 11 -34 25 -25 9 6 9 10 -1 17 -11 8 -11
9 -1 6 8 -2 13 -7 13 -11 -1 -4 -1 -14 -1 -23 0 -15 -2 -15 -25 0 -30 20 -35
20 -35 1 0 -9 -6 -12 -16 -8 -9 3 -11 9 -6 12 5 3 8 14 6 24 -1 9 4 17 12 17
8 0 14 4 14 8 0 5 -7 9 -15 9 -14 0 -17 -5 -14 -23 0 -4 -3 -10 -8 -13 -5 -3
-14 -17 -21 -31 -11 -25 -11 -25 -6 5 3 20 -2 14 -16 -20 -11 -27 -18 -56 -15
-63 3 -7 0 -10 -5 -7 -14 9 -12 -18 3 -35 10 -12 9 -12 -4 -2 -14 10 -19 6
-34 -27 -10 -22 -14 -45 -10 -53 5 -7 5 -10 0 -6 -4 4 -37 -45 -74 -108 -99
-173 -184 -285 -314 -420 -316 -327 -707 -532 -1167 -611 -147 -25 -514 -25
-650 0 -367 69 -631 183 -914 396 -107 81 -250 217 -330 316 -31 39 -62 70
-69 70 -7 0 -12 7 -12 15 0 8 -28 56 -61 106 -152 224 -264 512 -309 794 l-14
95 5 -185 c11 -402 63 -746 157 -1050 l23 -75 0 47 c-1 25 -4 44 -8 41 -5 -2
-8 0 -8 6 0 5 5 13 10 16 6 4 8 10 5 15 -3 4 -2 15 1 24 5 13 10 14 20 5 7 -6
26 -8 43 -4 17 4 32 2 36 -5 3 -6 3 -10 -2 -9 -4 1 -15 1 -23 0 -13 -1 -13 -3
0 -10 8 -6 17 -8 20 -6 3 2 11 -4 17 -14 9 -14 8 -17 -7 -16 -10 1 -26 7 -35
15 -9 8 -26 15 -36 17 -17 2 -18 1 -7 -11 7 -8 16 -12 19 -10 4 2 9 -6 13 -19
3 -13 9 -18 13 -12 5 6 19 9 33 8 14 -2 31 -4 38 -5 7 -1 10 -8 7 -17 -5 -13
-4 -13 6 -4 9 9 9 16 1 25 -8 10 -8 18 0 28 8 12 9 12 4 -2 -3 -11 0 -18 8
-18 8 0 17 -6 19 -12 4 -10 8 -9 17 2 10 13 11 13 6 -2 -7 -24 3 -23 33 5 14
12 19 14 12 5 -11 -15 -11 -18 2 -18 8 0 21 -8 28 -17 11 -15 11 -16 0 -6 -7
6 -20 9 -27 6 -8 -3 -14 0 -14 7 0 6 -4 9 -10 5 -5 -3 -7 -13 -4 -23 5 -15 4
-15 -6 -2 -9 12 -11 12 -8 1 4 -16 38 -25 38 -10 0 4 7 6 16 2 13 -5 13 -7 2
-14 -10 -7 -9 -9 4 -9 9 0 19 -6 21 -12 4 -8 6 -7 6 3 1 18 31 35 31 19 0 -6
-4 -10 -10 -10 -5 0 -10 -4 -10 -10 0 -5 6 -7 14 -4 11 4 14 -1 12 -20 -2 -15
4 -31 13 -38 14 -11 14 -11 3 3 -10 14 -9 17 7 22 14 3 17 0 14 -13 -3 -10 1
-17 11 -17 20 0 11 36 -13 54 -13 9 -10 10 13 6 21 -4 27 -3 22 6 -4 6 -4 11
1 10 20 -4 25 2 13 19 -7 9 37 -35 98 -98 61 -63 161 -164 224 -224 62 -60 94
-94 72 -77 -50 37 -54 38 -52 8 2 -19 7 -22 31 -19 23 4 28 2 22 -8 -5 -8 -4
-11 3 -6 6 3 13 2 17 -4 4 -6 10 -8 15 -5 5 3 55 -33 112 -81 57 -47 142 -114
190 -147 47 -34 85 -64 83 -66 -2 -2 -16 6 -32 16 -15 11 -42 26 -60 34 -17 7
-30 16 -27 20 4 7 -34 39 -47 39 -8 0 -5 -32 4 -47 4 -7 15 -9 23 -6 11 4 15
0 12 -13 -2 -15 3 -19 25 -18 25 1 28 -1 22 -23 -5 -22 -3 -24 24 -20 21 4 31
0 36 -10 7 -20 2 -25 -19 -17 -9 3 -13 11 -9 17 3 6 1 7 -6 3 -24 -15 10 -38
49 -33 19 3 29 3 22 0 -7 -3 -17 -14 -23 -26 -10 -21 -10 -21 5 -3 9 11 17 17
17 13 1 -4 2 -10 3 -14 1 -5 5 -14 9 -20 5 -7 5 -13 1 -13 -4 0 0 -8 8 -17 9
-10 17 -25 20 -33 3 -9 7 -10 11 -3 4 6 1 18 -7 26 -11 11 -12 17 -3 26 8 8 7
11 -6 11 -11 0 -17 8 -17 25 0 14 5 25 11 25 5 0 8 -4 5 -9 -3 -5 1 -12 10
-15 8 -3 13 -10 10 -15 -9 -13 19 -32 38 -25 10 4 16 1 16 -9 0 -10 -8 -13
-27 -9 -27 4 -28 4 -8 -13 11 -9 13 -13 5 -9 -13 7 -13 5 -2 -9 10 -12 19 -14
38 -6 16 6 32 5 43 -1 10 -5 22 -6 26 -2 5 4 5 1 1 -6 -4 -7 -12 -10 -17 -7
-5 4 -9 -1 -9 -9 0 -9 5 -16 11 -16 5 0 8 -4 4 -9 -3 -5 -1 -12 5 -16 5 -3 10
3 10 14 0 11 5 23 12 27 7 4 8 3 4 -5 -15 -24 3 -49 35 -47 31 2 36 -15 5 -20
-25 -4 -32 -12 -19 -25 8 -8 17 -4 32 12 21 22 21 22 35 4 12 -17 12 -21 -6
-34 -15 -10 -17 -16 -7 -21 7 -5 19 -2 28 7 18 19 29 0 12 -21 -13 -15 -4 -49
10 -40 5 3 9 -2 9 -10 0 -8 4 -18 10 -21 5 -3 8 0 7 7 -2 7 -2 10 0 6 3 -5 11
-8 19 -8 8 0 14 -4 14 -9 0 -10 -40 -8 -57 2 -5 3 -10 0 -10 -8 0 -8 6 -15 13
-15 8 0 11 -6 8 -15 -4 -8 -1 -15 5 -15 6 0 11 4 11 8 0 4 9 8 19 9 21 2 36
-23 21 -32 -6 -4 -6 -14 1 -27 10 -18 9 -20 -4 -15 -13 5 -14 2 -8 -15 4 -12
16 -22 25 -24 11 -2 16 2 12 11 -3 9 0 12 9 9 8 -3 11 -12 8 -19 -7 -20 46
-32 59 -14 7 10 8 9 3 -6 -4 -11 -9 -31 -11 -45 -2 -14 -1 -17 2 -7 3 9 10 17
15 17 6 0 7 6 3 13 -4 6 2 4 13 -6 11 -9 22 -14 26 -11 3 3 3 -4 0 -16 -7 -26
15 -44 34 -28 10 8 12 7 7 -6 -5 -12 -2 -15 10 -10 20 7 21 -3 3 -21 -12 -11
-17 -10 -30 6 -17 20 -37 25 -37 10 0 -5 7 -14 15 -21 8 -7 12 -16 10 -21 -3
-4 4 -7 15 -6 11 1 20 5 20 9 0 3 9 6 19 5 14 -1 17 -6 12 -17 -13 -25 -7 -63
13 -90 12 -16 16 -19 12 -7 -4 13 -2 17 6 14 7 -2 12 -14 11 -26 -2 -12 4 -24
11 -27 8 -3 13 -11 10 -18 -3 -8 8 -18 25 -26 19 -7 28 -17 24 -26 -3 -8 1
-14 11 -14 9 0 16 -4 16 -10 0 -5 -6 -7 -14 -4 -9 4 -13 -2 -11 -19 2 -13 -2
-30 -7 -38 -8 -11 -9 -10 -4 4 3 9 1 17 -4 17 -15 0 -12 -48 3 -53 18 -6 48 4
41 14 -3 5 -11 6 -17 3 -7 -4 -9 -3 -4 1 4 5 18 10 30 11 12 2 17 0 10 -2 -7
-3 -10 -11 -7 -19 3 -7 -3 -16 -14 -19 -11 -4 -22 -16 -25 -26 -3 -11 -1 -18
4 -14 5 3 9 0 9 -5 0 -6 5 -11 10 -11 6 0 10 9 10 20 0 21 29 29 31 8 0 -7 2
-21 4 -30 2 -10 -1 -20 -6 -24 -5 -3 -9 0 -9 7 0 7 -3 10 -6 6 -3 -3 -3 -15 1
-27 6 -18 9 -19 23 -8 15 12 16 11 3 -4 -7 -10 -17 -15 -22 -12 -5 3 -9 0 -9
-5 0 -15 -27 -14 -36 1 -5 7 -2 9 9 5 9 -3 18 0 21 9 3 9 -1 14 -12 14 -10 0
-24 6 -31 13 -11 10 -12 9 -5 -3 5 -8 9 -24 9 -35 0 -14 8 -21 28 -23 15 -2
27 -9 27 -18 0 -17 -17 -19 -23 -1 -2 6 -4 0 -3 -15 1 -17 5 -23 10 -17 14 13
29 11 23 -4 -3 -8 4 -14 16 -15 15 -1 18 1 9 7 -10 6 -8 10 7 14 12 3 19 1 15
-4 -3 -5 -1 -9 5 -9 6 0 8 -6 5 -14 -6 -16 29 -31 47 -20 8 4 9 3 5 -5 -4 -7
-15 -11 -24 -10 -30 3 -35 -1 -21 -17 10 -13 10 -17 -2 -26 -11 -8 -10 -9 4
-4 10 3 23 6 29 6 6 0 6 6 -2 15 -9 11 -9 15 -1 15 21 0 34 -45 21 -70 -10
-18 -10 -21 2 -14 17 11 57 17 43 7 -14 -10 -17 -51 -4 -58 5 -4 7 -11 4 -16
-4 -5 -1 -9 5 -9 6 0 8 -5 5 -10 -4 -6 -10 -8 -14 -6 -4 3 -7 -5 -8 -17 0 -12
1 -17 4 -10 2 7 11 9 19 6 9 -3 14 0 12 7 -2 7 3 15 11 18 9 3 11 0 7 -9 -4
-8 -1 -6 8 5 14 17 15 16 10 -24 -4 -32 -2 -41 8 -38 7 3 13 10 13 16 0 16 12
25 24 18 11 -7 -17 -40 -40 -48 -7 -2 8 -10 34 -17 41 -12 50 -11 74 3 l28 17
-23 -20 -23 -20 68 -20 c475 -140 915 -156 1360 -52 133 32 134 32 333 164
622 413 1170 995 1536 1629 328 568 551 1279 593 1893 9 132 14 585 6 585 -3
0 -5 -53 -6 -117z m-149 -143 c0 -6 -7 -13 -15 -16 -8 -4 -15 -10 -15 -16 0
-5 5 -6 12 -2 6 4 8 3 5 -3 -3 -5 -20 -9 -37 -8 -16 1 -30 -2 -30 -7 0 -4 -5
-8 -11 -8 -8 0 -8 4 1 14 6 8 18 12 25 10 7 -3 21 6 30 20 18 27 35 34 35 16z
m60 -4 c0 -3 -4 -8 -10 -11 -5 -3 -10 -1 -10 4 0 6 5 11 10 11 6 0 10 -2 10
-4z m-233 -71 c0 -8 -2 -15 -4 -15 -3 0 -11 7 -19 15 -14 13 -13 15 4 15 10 0
19 -7 19 -15z m93 -10 c0 -12 -19 -12 -23 0 -4 9 -1 12 9 8 7 -3 14 -7 14 -8z
m227 -57 c-2 -13 -4 -3 -4 22 0 25 2 35 4 23 2 -13 2 -33 0 -45z m-287 12 c0
-5 -2 -10 -4 -10 -3 0 -8 5 -11 10 -3 6 -1 10 4 10 6 0 11 -4 11 -10z m-121
-14 c9 -11 9 -16 -1 -22 -9 -6 -6 -10 12 -16 l25 -7 -25 2 c-18 1 -24 7 -22
20 2 9 -2 17 -8 17 -5 0 -10 5 -10 10 0 14 16 12 29 -4z m58 -2 c-3 -3 -12 -4
-19 -1 -8 3 -5 6 6 6 11 1 17 -2 13 -5z m-167 -35 c0 -6 7 -9 15 -5 8 3 15 1
15 -4 0 -15 -26 -12 -40 5 -9 10 -9 15 -1 15 6 0 11 -5 11 -11z m-45 -39 c3
-5 1 -10 -4 -10 -6 0 -11 5 -11 10 0 6 2 10 4 10 3 0 8 -4 11 -10z m-88 -11
c-9 -6 -14 -15 -11 -21 4 -7 2 -8 -5 -4 -14 9 3 36 23 36 6 0 3 -5 -7 -11z
m-107 -35 c0 -11 -5 -14 -16 -10 -9 3 -21 6 -27 7 -7 0 -3 4 8 9 29 13 35 12
35 -6z m25 -14 c3 -5 1 -10 -4 -10 -6 0 -11 5 -11 10 0 6 2 10 4 10 3 0 8 -4
11 -10z m722 -12 c-3 -8 -6 -5 -6 6 -1 11 2 17 5 13 3 -3 4 -12 1 -19z m-797
5 c-8 -3 -18 -11 -22 -17 -5 -7 -8 -4 -8 7 0 11 7 17 23 16 15 0 17 -2 7 -6z
m-226 -34 c-3 -5 -10 -7 -15 -3 -6 3 -7 -5 -3 -22 5 -19 4 -25 -5 -20 -6 4
-11 3 -11 -2 0 -5 -10 -9 -22 -8 -13 0 -23 -4 -23 -11 0 -6 -4 -15 -9 -20 -5
-5 -6 -3 -2 5 4 6 2 12 -3 12 -19 0 -12 22 9 27 11 3 20 10 20 17 0 6 12 18
28 27 28 16 47 15 36 -2z m316 17 c0 -2 -8 -10 -17 -17 -16 -13 -17 -12 -4 4
13 16 21 21 21 13z m-75 -34 c-3 -3 -11 0 -18 7 -9 10 -8 11 6 5 10 -3 15 -9
12 -12z m-363 -28 c-2 -5 -8 -8 -13 -6 -5 1 -2 -9 6 -22 12 -18 13 -26 4 -31
-7 -5 -16 -1 -21 9 -8 14 -12 15 -26 4 -16 -12 -16 -11 -1 7 9 11 14 26 12 33
-3 6 1 12 7 12 9 0 9 5 -1 17 -13 17 -13 17 11 2 14 -9 23 -20 22 -25z m202
17 c12 -13 14 -21 6 -26 -6 -4 -9 -1 -8 7 2 7 -4 13 -13 12 -9 -1 -16 5 -16
12 0 19 11 17 31 -5z m116 15 c0 -11 -19 -15 -25 -6 -3 5 1 10 9 10 9 0 16 -2
16 -4z m-183 -12 c-10 -10 13 -45 25 -38 5 4 14 0 19 -7 14 -22 10 -35 -4 -14
-15 20 -34 5 -21 -17 5 -7 3 -8 -5 -4 -7 5 -10 15 -7 23 4 10 2 13 -7 10 -10
-4 -13 3 -11 21 3 32 2 32 11 32 3 0 3 -3 0 -6z m-43 -104 c10 -13 9 -13 -6
-1 -10 7 -18 21 -17 30 0 13 1 14 6 1 3 -8 11 -22 17 -30z m-195 16 c10 -12 8
-14 -14 -11 -18 2 -25 -2 -21 -11 3 -8 0 -11 -10 -7 -19 7 -12 28 10 27 9 -1
16 2 16 7 0 13 6 11 19 -5z m121 -10 c0 -3 -4 -8 -10 -11 -5 -3 -10 -1 -10 4
0 6 5 11 10 11 6 0 10 -2 10 -4z m-332 -23 c-5 -6 -16 -9 -24 -6 -22 8 -17 18
10 18 18 0 22 -3 14 -12z m-52 -15 c-3 -13 -6 -32 -7 -43 -1 -13 -4 -10 -8 10
-8 34 -4 55 11 55 6 0 8 -10 4 -22z m148 -14 c6 -15 4 -15 -11 -3 -10 7 -20
15 -22 16 -2 2 3 3 11 3 9 0 19 -7 22 -16z m94 7 c9 -5 2 -8 -20 -9 -23 -1
-28 2 -18 8 18 12 22 12 38 1z m-278 -16 c0 -8 -2 -15 -4 -15 -2 0 -6 7 -10
15 -3 8 -1 15 4 15 6 0 10 -7 10 -15z m108 -5 c13 -21 12 -21 -13 -4 -22 15
-28 15 -35 3 -5 -7 -12 -10 -15 -7 -12 11 5 28 28 28 12 0 28 -9 35 -20z m267
10 c3 -6 -1 -7 -9 -4 -18 7 -21 14 -7 14 6 0 13 -4 16 -10z m-607 -45 c-2 -16
-7 -24 -15 -21 -17 7 -17 -6 0 -23 10 -11 9 -12 -3 -5 -8 5 -25 9 -38 9 -24 1
-42 19 -42 44 0 11 4 11 18 -2 10 -10 22 -14 27 -10 4 5 5 3 1 -4 -3 -6 -2
-14 4 -18 10 -6 14 6 11 35 -2 12 0 12 7 2 7 -11 10 -11 15 2 9 24 17 19 15
-9z m196 16 c3 -5 -1 -11 -9 -14 -9 -4 -12 -1 -8 9 6 16 10 17 17 5z m-94 -13
c0 -4 -8 -8 -18 -8 -9 0 -23 -9 -30 -20 -10 -17 -15 -18 -26 -8 -10 9 -11 15
-3 20 6 4 14 2 18 -4 4 -6 9 -3 13 9 6 18 46 28 46 11z m135 2 c3 -6 -1 -7 -9
-4 -18 7 -21 14 -7 14 6 0 13 -4 16 -10z m-113 -51 c8 -20 7 -22 -4 -9 -7 8
-20 20 -28 26 -13 11 -12 12 4 10 11 -1 23 -14 28 -27z m65 -11 c-3 -8 -6 -5
-6 6 -1 11 2 17 5 13 3 -3 4 -12 1 -19z m-22 2 c3 -6 -1 -7 -9 -4 -18 7 -21
14 -7 14 6 0 13 -4 16 -10z m-372 -37 c-4 -11 -3 -14 5 -9 8 5 9 1 4 -14 -4
-12 -12 -22 -17 -22 -6 0 -15 -4 -20 -8 -6 -5 -17 -4 -25 2 -12 8 -12 9 2 4
10 -3 20 -1 23 5 4 5 10 7 14 5 4 -3 8 1 8 8 0 8 -6 12 -14 9 -7 -3 -13 2 -13
12 0 9 4 14 9 10 5 -3 12 -1 16 5 10 16 15 12 8 -7z m177 -2 c0 -4 -9 -7 -20
-8 -19 -2 -26 8 -14 20 7 7 34 -2 34 -12z m-310 -27 c-8 -9 -10 -18 -4 -22 11
-8 12 -38 1 -48 -4 -4 -7 5 -7 19 0 15 -5 27 -10 27 -6 0 -3 11 7 24 10 13 20
22 22 20 2 -2 -2 -11 -9 -20z m-93 -1 c-4 -3 1 -12 11 -19 16 -12 16 -13 0
-10 -10 1 -20 5 -24 8 -6 7 3 28 13 28 4 0 3 -3 0 -7z m383 3 c0 -3 -4 -8 -10
-11 -5 -3 -10 -1 -10 4 0 6 5 11 10 11 6 0 10 -2 10 -4z m-445 -27 c-4 -6 0
-9 10 -7 10 2 20 -4 22 -12 3 -11 2 -11 -4 -3 -6 8 -14 9 -23 3 -13 -8 -13
-10 -1 -10 8 0 11 -3 8 -7 -7 -6 -47 30 -47 42 0 3 9 5 21 5 12 0 17 -4 14
-11z m325 -20 c-6 -10 -16 -19 -23 -19 -9 0 -8 3 1 9 7 4 12 12 11 17 -3 18 1
25 11 19 7 -4 7 -13 0 -26z m40 -15 c0 -2 -7 -4 -15 -4 -8 0 -15 4 -15 10 0 5
7 7 15 4 8 -4 15 -8 15 -10z m-395 -4 c-3 -5 -2 -10 2 -10 5 0 14 -10 22 -22
14 -22 13 -22 -5 -8 -33 26 -44 50 -23 50 5 0 7 -4 4 -10z m315 4 c0 -8 -19
-13 -24 -6 -3 5 1 9 9 9 8 0 15 -2 15 -3z m-3958 -694 c7 -14 18 -29 24 -35 6
-5 28 -29 48 -51 28 -32 33 -43 22 -47 -9 -4 -13 -1 -10 6 2 7 -16 33 -41 59
-25 26 -45 50 -45 54 0 4 -10 15 -22 25 -11 11 -17 19 -13 19 5 0 -1 10 -12
23 -11 12 -23 29 -28 37 -12 25 63 -63 77 -90z m23 -109 c3 -5 1 -12 -4 -15
-5 -3 -11 1 -15 9 -6 16 9 21 19 6z m775 -695 c0 -11 -19 -15 -25 -6 -3 5 1
10 9 10 9 0 16 -2 16 -4z m240 -140 c0 -1 -9 -2 -19 -2 -11 0 -19 3 -18 7 1 3
-9 16 -23 28 -19 17 -14 15 18 -5 23 -15 42 -27 42 -28z m-83 28 c-3 -3 -12
-4 -19 -1 -8 3 -5 6 6 6 11 1 17 -2 13 -5z m203 -100 c0 -2 -13 2 -30 11 -16
9 -30 18 -30 21 0 2 14 -2 30 -11 17 -9 30 -18 30 -21z m55 -106 c-19 -11 -30
-5 -21 11 4 6 14 7 22 4 15 -5 14 -7 -1 -15z m214 -314 c14 -12 -19 -1 -35 12
-18 14 -18 14 6 3 14 -6 27 -13 29 -15z m6 -24 c3 -5 1 -10 -4 -10 -6 0 -11 5
-11 10 0 6 2 10 4 10 3 0 8 -4 11 -10z m59 -26 c5 -14 4 -15 -9 -4 -17 14 -19
20 -6 20 5 0 12 -7 15 -16z m139 -179 c6 -15 -7 -28 -35 -32 -12 -2 -15 3 -10
19 3 13 7 17 10 10 2 -6 11 -12 20 -11 11 0 12 2 5 6 -15 5 -17 23 -4 23 5 0
11 -7 14 -15z m24 -70 c0 -8 -6 -16 -13 -19 -7 -3 -10 2 -7 15 6 22 20 26 20
4z m127 -231 c3 -8 2 -12 -4 -9 -6 3 -10 10 -10 16 0 14 7 11 14 -7z m26 -118
c0 -3 -4 -8 -10 -11 -5 -3 -10 -1 -10 4 0 6 5 11 10 11 6 0 10 -2 10 -4z m-17
-37 c5 -4 6 -12 2 -18 -10 -17 -35 18 -27 38 5 13 6 13 10 0 3 -7 9 -17 15
-20z m47 -10 c-11 -20 -30 -17 -30 4 0 7 4 6 10 -3 9 -13 10 -13 11 0 1 8 1
19 0 23 -1 5 3 6 9 2 7 -4 7 -12 0 -26z m73 -4 c-3 -9 -8 -14 -10 -11 -3 3 -2
9 2 15 9 16 15 13 8 -4z m34 -205 c-1 -21 -21 -27 -32 -10 -4 6 -1 9 6 8 6 -2
14 3 17 11 3 9 0 11 -8 6 -9 -5 -11 -4 -6 4 10 16 25 4 23 -19z m33 -31 c0 -5
-4 -9 -8 -9 -5 0 -9 7 -9 15 0 8 4 12 9 9 4 -3 8 -9 8 -15z m64 -111 c-7 -10
-34 -10 -34 0 0 4 9 8 19 8 11 0 17 -4 15 -8z"/>
<path d="M8435 4700 c-3 -5 1 -10 10 -10 9 0 13 5 10 10 -3 6 -8 10 -10 10 -2
0 -7 -4 -10 -10z"/>
<path d="M8335 4640 c3 -5 8 -10 11 -10 2 0 4 5 4 10 0 6 -5 10 -11 10 -5 0
-7 -4 -4 -10z"/>
<path d="M7151 5274 c0 -11 3 -14 6 -6 3 7 2 16 -1 19 -3 4 -6 -2 -5 -13z"/>
<path d="M7162 5180 c0 -19 2 -27 5 -17 2 9 2 25 0 35 -3 9 -5 1 -5 -18z"/>
<path d="M9485 5099 c-11 -16 -1 -19 13 -3 7 8 8 14 3 14 -5 0 -13 -5 -16 -11z"/>
<path d="M9304 5072 c3 -6 -2 -13 -11 -15 -14 -4 -13 -5 5 -6 23 -1 30 13 10
25 -6 4 -8 3 -4 -4z"/>
<path d="M9237 5057 c-3 -8 1 -14 8 -14 7 0 11 6 8 14 -3 7 -6 13 -8 13 -2 0
-5 -6 -8 -13z"/>
<path d="M7173 4980 c0 -36 2 -50 4 -32 2 17 2 47 0 65 -2 17 -4 3 -4 -33z"/>
<path d="M9196 5017 c3 -10 9 -15 12 -12 3 3 0 11 -7 18 -10 9 -11 8 -5 -6z"/>
<path d="M8877 4979 c7 -7 15 -10 18 -7 3 3 -2 9 -12 12 -14 6 -15 5 -6 -5z"/>
<path d="M8976 4982 c-3 -5 1 -9 9 -9 8 0 12 4 9 9 -3 4 -7 8 -9 8 -2 0 -6 -4
-9 -8z"/>
<path d="M9105 4980 c27 -12 43 -12 25 0 -8 5 -22 9 -30 9 -10 0 -8 -3 5 -9z"/>
<path d="M9040 4969 c0 -5 5 -7 10 -4 6 3 10 8 10 11 0 2 -4 4 -10 4 -5 0 -10
-5 -10 -11z"/>
<path d="M9140 4929 c0 -5 10 -9 22 -9 12 0 18 3 14 7 -10 11 -36 12 -36 2z"/>
<path d="M8764 4919 c-3 -6 -2 -15 3 -20 5 -5 9 -1 9 11 0 23 -2 24 -12 9z"/>
<path d="M8911 4914 c0 -11 3 -14 6 -6 3 7 2 16 -1 19 -3 4 -6 -2 -5 -13z"/>
<path d="M8666 4908 c3 -5 10 -6 15 -3 13 9 11 12 -6 12 -8 0 -12 -4 -9 -9z"/>
<path d="M8845 4911 c-3 -6 3 -14 12 -20 14 -8 16 -12 6 -22 -11 -11 -13 -10
-13 0 0 7 -5 11 -11 9 -11 -4 -14 -19 -3 -17 4 0 11 -5 15 -13 7 -10 9 -10 9
0 0 8 5 10 13 6 6 -4 9 -4 5 0 -4 5 -3 19 3 33 8 22 7 24 -12 18 -15 -5 -19
-4 -15 4 4 6 5 11 2 11 -3 0 -7 -4 -11 -9z"/>
<path d="M8713 4904 c4 -4 1 -14 -6 -22 -10 -13 -9 -14 11 -3 27 14 27 17 5
25 -10 4 -14 4 -10 0z"/>
<path d="M8960 4900 c0 -5 5 -10 11 -10 5 0 7 5 4 10 -3 6 -8 10 -11 10 -2 0
-4 -4 -4 -10z"/>
<path d="M3689 4876 c-39 -23 -52 -60 -35 -101 18 -43 29 -48 156 -75 301 -64
515 -181 710 -387 127 -134 215 -274 291 -462 43 -107 57 -128 95 -137 32 -8
75 21 85 58 9 35 -15 210 -45 324 -82 305 -288 554 -573 691 -152 73 -255 94
-473 99 -150 4 -190 2 -211 -10z"/>
<path d="M8675 4880 c-3 -5 -1 -10 4 -10 6 0 11 5 11 10 0 6 -2 10 -4 10 -3 0
-8 -4 -11 -10z"/>
<path d="M8745 4881 c-3 -5 -2 -12 3 -15 5 -3 9 1 9 9 0 17 -3 19 -12 6z"/>
<path d="M7163 4810 c0 -25 2 -35 4 -22 2 12 2 32 0 45 -2 12 -4 2 -4 -23z"/>
<path d="M8750 4829 c0 -5 5 -7 10 -4 6 3 10 8 10 11 0 2 -4 4 -10 4 -5 0 -10
-5 -10 -11z"/>
<path d="M8430 4816 c0 -8 -6 -16 -12 -19 -7 -2 -10 -7 -7 -11 3 -3 14 2 23
13 11 12 14 21 7 26 -6 3 -11 0 -11 -9z"/>
<path d="M8565 4820 c-3 -5 -1 -10 4 -10 6 0 11 5 11 10 0 6 -2 10 -4 10 -3 0
-8 -4 -11 -10z"/>
<path d="M8650 4799 c-8 -5 -10 -9 -5 -9 6 0 3 -5 -5 -10 -8 -5 -10 -10 -5
-10 6 1 18 7 28 14 21 16 9 29 -13 15z"/>
<path d="M8371 4776 c-9 -11 -9 -16 1 -22 7 -4 10 -4 6 1 -4 4 -3 14 3 22 6 7
9 13 6 13 -2 0 -10 -6 -16 -14z"/>
<path d="M7152 4710 c0 -19 2 -27 5 -17 2 9 2 25 0 35 -3 9 -5 1 -5 -18z"/>
<path d="M8188 4713 c-9 -16 -3 -36 12 -40 12 -4 12 -3 1 5 -11 8 -11 10 0 15
11 3 11 8 3 17 -7 6 -14 8 -16 3z"/>
<path d="M8104 4675 c5 -11 9 -24 9 -30 0 -5 12 -11 26 -12 l26 -1 -23 12
c-12 7 -20 15 -17 18 3 3 -2 11 -12 19 -15 13 -16 12 -9 -6z"/>
<path d="M8289 4675 c-3 -2 -16 -6 -29 -8 -13 -2 -26 -10 -28 -16 -3 -9 2 -11
19 -6 22 7 61 35 48 35 -3 0 -8 -2 -10 -5z"/>
<path d="M7142 4635 c0 -16 2 -22 5 -12 2 9 2 23 0 30 -3 6 -5 -1 -5 -18z"/>
<path d="M8000 4649 c0 -5 5 -7 10 -4 6 3 10 8 10 11 0 2 -4 4 -10 4 -5 0 -10
-5 -10 -11z"/>
<path d="M8070 4656 c0 -2 7 -6 15 -10 8 -3 15 -1 15 4 0 6 -7 10 -15 10 -8 0
-15 -2 -15 -4z"/>
<path d="M8046 4642 c-3 -4 4 -9 15 -9 23 -2 25 3 4 10 -8 4 -16 3 -19 -1z"/>
<path d="M7116 4524 c-9 -42 -15 -79 -12 -81 2 -2 11 30 21 72 9 42 15 79 12
81 -2 2 -11 -30 -21 -72z"/>
<path d="M7750 4583 c0 -6 7 -14 16 -17 8 -3 13 -10 9 -15 -3 -5 -2 -12 3 -15
17 -10 8 24 -10 41 -10 9 -18 11 -18 6z"/>
<path d="M7790 4586 c0 -2 8 -10 18 -17 15 -13 16 -12 3 4 -13 16 -21 21 -21
13z"/>
<path d="M7841 4572 c8 -12 15 -18 17 -12 2 6 7 8 11 6 4 -3 8 1 8 9 0 10 -4
12 -12 5 -7 -6 -16 -5 -24 3 -10 9 -10 6 0 -11z"/>
<path d="M7543 4530 c-1 -13 4 -16 18 -13 24 7 24 10 1 22 -14 7 -18 6 -19 -9z"/>
<path d="M7352 4495 c-11 -12 -10 -15 3 -15 8 0 15 7 15 15 0 18 -2 18 -18 0z"/>
<path d="M7507 4493 c6 -15 43 -18 43 -3 0 5 -7 6 -17 3 -10 -4 -14 -2 -10 4
3 5 0 10 -7 10 -8 0 -12 -6 -9 -14z"/>
<path d="M7335 4460 c-3 -5 1 -10 10 -10 9 0 13 5 10 10 -3 6 -8 10 -10 10 -2
0 -7 -4 -10 -10z"/>
<path d="M7530 4455 c0 -8 4 -15 8 -15 5 0 9 7 9 15 0 8 -4 15 -9 15 -4 0 -8
-7 -8 -15z"/>
<path d="M7580 4460 c0 -5 5 -10 11 -10 5 0 7 5 4 10 -3 6 -8 10 -11 10 -2 0
-4 -4 -4 -10z"/>
<path d="M7210 4450 c0 -5 5 -10 11 -10 5 0 7 -5 3 -12 -4 -7 -3 -8 4 -4 6 4
9 13 5 21 -6 17 -23 20 -23 5z"/>
<path d="M7153 4419 c-4 -13 -11 -18 -20 -15 -9 4 -13 1 -11 -6 3 -7 13 -15
23 -16 10 -3 15 0 11 7 -4 6 -2 11 3 11 6 0 10 6 9 13 -2 6 5 11 15 9 9 -2 17
1 17 5 0 19 -42 11 -47 -8z"/>
<path d="M7347 4427 c-3 -8 1 -14 9 -14 16 0 19 13 5 21 -5 3 -11 0 -14 -7z"/>
<path d="M7082 4393 c-6 -20 -10 -39 -8 -41 2 -2 7 7 11 20 4 13 11 25 16 28
4 3 4 11 0 18 -5 8 -11 0 -19 -25z"/>
<path d="M7265 4410 c-3 -5 -2 -10 4 -10 5 0 13 5 16 10 3 6 2 10 -4 10 -5 0
-13 -4 -16 -10z"/>
<path d="M3445 3490 c-3 -5 -1 -10 4 -10 6 0 11 5 11 10 0 6 -2 10 -4 10 -3 0
-8 -4 -11 -10z"/>
<path d="M3400 3473 c8 -3 24 -10 35 -15 20 -9 20 -9 1 6 -11 9 -27 16 -35 15
-14 0 -14 -1 -1 -6z"/>
<path d="M3266 3420 c3 -14 11 -32 16 -40 6 -10 7 -7 2 10 -3 14 -11 32 -16
40 -6 10 -7 7 -2 -10z"/>
<path d="M3672 3425 c-7 -8 -9 -15 -5 -15 5 0 8 -15 8 -34 -1 -28 2 -34 17
-31 10 2 23 7 28 10 6 3 10 1 10 -4 0 -6 -4 -11 -10 -11 -5 0 -10 -8 -10 -17
1 -17 1 -17 11 0 6 9 15 15 20 12 5 -4 7 -10 5 -14 -5 -8 10 -11 54 -12 24 -1
24 -1 5 -15 -18 -13 -18 -14 8 -14 15 0 27 4 27 8 0 13 -36 43 -43 37 -4 -3
-5 -2 -2 2 3 3 0 12 -6 20 -9 10 -15 11 -26 2 -11 -9 -17 -8 -27 7 -8 10 -12
22 -9 27 3 5 11 0 19 -10 7 -10 14 -13 14 -7 0 16 -51 74 -65 74 -5 -1 -16 -7
-23 -15z m35 -32 c-4 -3 -2 -12 3 -18 8 -9 6 -14 -5 -19 -9 -3 -13 -2 -10 3 3
5 0 13 -6 17 -8 4 -7 9 2 15 17 10 25 12 16 2z m64 -66 c-10 -9 -11 -8 -5 6 3
10 9 15 12 12 3 -3 0 -11 -7 -18z"/>
<path d="M3533 3412 c-9 -6 -4 -13 17 -26 32 -18 38 -12 16 17 -15 19 -16 20
-33 9z"/>
<path d="M3291 3355 c1 -19 18 -51 18 -35 0 8 -4 22 -9 30 -5 8 -9 11 -9 5z"/>
<path d="M3765 3290 c3 -5 8 -10 11 -10 2 0 4 5 4 10 0 6 -5 10 -11 10 -5 0
-7 -4 -4 -10z"/>
<path d="M3835 3270 c-3 -5 -15 -10 -26 -10 -10 0 -19 -4 -19 -8 0 -12 44 -9
58 4 6 7 12 15 12 18 0 10 -18 7 -25 -4z"/>
<path d="M3864 3249 c-3 -6 -1 -15 6 -19 6 -4 12 -11 13 -16 1 -5 6 -8 10 -6
14 4 35 -24 27 -38 -5 -9 -9 -9 -13 -1 -3 7 -4 7 -2 -1 1 -7 8 -12 14 -10 6 1
11 -6 11 -15 0 -15 2 -14 14 3 14 19 15 19 33 0 17 -18 17 -18 -4 -13 -13 3
-23 1 -23 -3 0 -15 17 -20 39 -12 20 7 18 11 -31 57 -29 27 -56 49 -60 47 -5
-1 -8 4 -8 12 0 20 -17 29 -26 15z m81 -79 c3 -5 1 -10 -4 -10 -6 0 -11 5 -11
10 0 6 2 10 4 10 3 0 8 -4 11 -10z"/>
<path d="M3836 3212 c-3 -5 1 -9 9 -9 8 0 12 4 9 9 -3 4 -7 8 -9 8 -2 0 -6 -4
-9 -8z"/>
<path d="M3875 3170 c-3 -5 -1 -10 4 -10 6 0 11 5 11 10 0 6 -2 10 -4 10 -3 0
-8 -4 -11 -10z"/>
<path d="M4150 2993 c0 -5 7 -18 15 -29 13 -18 14 -18 8 4 -5 22 -23 41 -23
25z"/>
<path d="M4235 2919 c6 -9 3 -11 -8 -6 -11 4 -14 2 -10 -8 3 -8 9 -12 14 -9 5
3 9 1 9 -4 0 -6 10 -8 22 -4 16 4 19 2 13 -8 -5 -9 -4 -11 4 -6 14 9 0 31 -32
48 -15 8 -18 7 -12 -3z"/>
<path d="M4290 2840 c0 -5 5 -10 11 -10 5 0 7 5 4 10 -3 6 -8 10 -11 10 -2 0
-4 -4 -4 -10z"/>
<path d="M4346 2745 c-3 -8 -1 -17 3 -20 5 -3 11 2 15 10 3 8 1 17 -3 20 -5 3
-11 -2 -15 -10z"/>
<path d="M4640 2522 c0 -10 -5 -23 -12 -30 -7 -7 -9 -12 -4 -12 12 0 31 23 34
43 2 9 -2 17 -8 17 -5 0 -10 -8 -10 -18z"/>
<path d="M4705 2460 c-3 -5 -1 -10 4 -10 6 0 11 5 11 10 0 6 -2 10 -4 10 -3 0
-8 -4 -11 -10z"/>
<path d="M4780 2435 c-8 -9 -8 -15 -2 -15 12 0 26 19 19 26 -2 2 -10 -2 -17
-11z"/>
<path d="M4786 2351 c-3 -5 1 -11 9 -14 9 -4 12 -1 8 9 -6 16 -10 17 -17 5z"/>
<path d="M4885 2259 c-4 -6 -4 -13 -1 -16 3 -4 6 -1 6 6 0 7 5 9 12 5 7 -4 8
-3 4 4 -9 15 -13 15 -21 1z"/>
<path d="M4915 2100 c3 -5 11 -10 16 -10 6 0 7 5 4 10 -3 6 -11 10 -16 10 -6
0 -7 -4 -4 -10z"/>
<path d="M5031 2094 c0 -11 3 -14 6 -6 3 7 2 16 -1 19 -3 4 -6 -2 -5 -13z"/>
<path d="M4996 2027 c3 -10 9 -15 12 -12 3 3 0 11 -7 18 -10 9 -11 8 -5 -6z"/>
<path d="M5098 1973 c7 -3 16 -2 19 1 4 3 -2 6 -13 5 -11 0 -14 -3 -6 -6z"/>
<path d="M5187 1804 c6 -15 23 -19 23 -5 0 5 -7 11 -14 14 -10 4 -13 1 -9 -9z"/>
<path d="M5225 1778 c5 -18 4 -19 -4 -8 -5 8 -13 11 -17 8 -9 -10 -13 -88 -4
-93 4 -3 7 11 5 30 -1 19 2 35 7 35 4 0 8 -6 8 -12 0 -10 3 -9 9 1 7 11 9 11
14 0 3 -8 4 -3 2 11 -2 14 -4 31 -4 38 -1 6 -6 12 -12 12 -6 0 -8 -9 -4 -22z"/>
<path d="M5210 1666 c0 -1 9 -9 20 -19 15 -13 20 -14 20 -3 0 7 -9 16 -20 19
-11 3 -20 4 -20 3z"/>
<path d="M5300 1621 c0 -6 4 -13 10 -16 6 -3 7 1 4 9 -7 18 -14 21 -14 7z"/>
<path d="M5235 1481 c-3 -5 -1 -12 5 -16 5 -3 10 1 10 9 0 18 -6 21 -15 7z"/>
<path d="M5346 1385 c4 -8 10 -15 15 -15 4 0 6 7 3 15 -4 8 -10 15 -15 15 -4
0 -6 -7 -3 -15z"/>
<path d="M5396 1302 c-2 -4 -1 -14 5 -22 7 -12 9 -10 9 8 0 23 -5 28 -14 14z"/>
<path d="M5439 1298 c-5 -18 -6 -38 -1 -34 7 8 12 36 6 36 -2 0 -4 -1 -5 -2z"/>
<path d="M5480 1161 c0 -9 30 -24 36 -18 2 1 -6 8 -16 15 -11 7 -20 8 -20 3z"/>
<path d="M7074 1004 c-18 -14 -18 -15 4 -4 12 6 22 13 22 15 0 8 -5 6 -26 -11z"/>
</g>
</svg>
