<?xml version="1.0" standalone="no"?>
<!DOCTYPE svg PUBLIC "-//W3C//DTD SVG 20010904//EN"
 "http://www.w3.org/TR/2001/REC-SVG-20010904/DTD/svg10.dtd">
<svg version="1.0" xmlns="http://www.w3.org/2000/svg"
 width="159.000000pt" height="189.000000pt" viewBox="0 0 159.000000 189.000000"
 preserveAspectRatio="xMidYMid meet">

<g transform="translate(0.000000,189.000000) scale(0.100000,-0.100000)"
fill="#000000" stroke="none">
<path d="M913 1879 c-313 -40 -546 -199 -750 -510 -77 -117 -106 -181 -134
-285 -29 -109 -29 -278 0 -389 63 -241 251 -456 469 -537 31 -12 61 -25 66
-29 14 -12 -150 -59 -231 -66 -86 -7 -80 -16 23 -37 225 -47 405 -21 584 83 8
5 38 14 65 20 70 16 219 91 287 145 124 99 236 275 275 431 24 101 22 286 -5
386 -89 330 -375 564 -721 591 -34 3 -31 6 103 106 l138 102 -53 -1 c-30 -1
-82 -5 -116 -10z m39 -642 c117 -57 194 -157 218 -284 43 -217 -124 -428 -349
-441 -385 -22 -556 470 -241 691 76 53 128 67 231 64 69 -2 96 -8 141 -30z"/>
<path d="M623 1113 c-39 -7 -26 -21 58 -63 155 -77 252 -175 319 -323 19 -42
40 -75 45 -73 6 2 9 33 9 72 -4 169 -119 327 -269 369 -60 16 -131 24 -162 18z"/>
<path d="M546 992 c-4 -7 23 -25 71 -48 100 -48 205 -150 248 -241 16 -35 33
-63 39 -63 5 0 7 30 4 68 -9 120 -70 211 -174 259 -58 27 -177 42 -188 25z"/>
<path d="M490 876 c0 -3 28 -20 63 -38 80 -43 138 -101 178 -179 24 -49 33
-59 40 -47 11 19 -4 106 -25 145 -21 40 -75 90 -118 107 -33 14 -138 23 -138
12z"/>
</g>
</svg>
